<?xml version="1.0" encoding="utf-8"?>
<!-- Generator: Adobe Illustrator 18.0.0, SVG Export Plug-In . SVG Version: 6.00 Build 0)  -->
<!DOCTYPE svg PUBLIC "-//W3C//DTD SVG 1.1//EN" "http://www.w3.org/Graphics/SVG/1.1/DTD/svg11.dtd">
<svg version="1.1" id="Layer_1" xmlns="http://www.w3.org/2000/svg" xmlns:xlink="http://www.w3.org/1999/xlink" x="0px" y="0px"
	 viewBox="228.5 228.5 55 55" enable-background="new 228.5 228.5 55 55" xml:space="preserve">
<g>
	<path id="twitter-4-icon" fill="#44BE9F" d="M256,229c-14.9,0-27,12.1-27,27c0,14.9,12.1,27,27,27c14.9,0,27-12.1,27-27
		C283,241.1,270.9,229,256,229z"/>
</g>
<g>
	<g id="XMLID_2_">
		<g>
			<rect x="242.2" y="251.2" fill="#FFFFFF" width="5.9" height="19.1"/>
			<path fill="#FFFFFF" d="M245.1,241.6c1.9,0,3.5,1.6,3.5,3.5s-1.6,3.5-3.5,3.5c-1.9,0-3.5-1.6-3.5-3.5S243.2,241.6,245.1,241.6z"
				/>
			<path fill="#FFFFFF" d="M270.4,258.2c0,5.1,0,12.1,0,12.1h-5.9c0,0,0-7.3,0-10s-1-4.3-3.2-4.3c-2.4,0-3.6,1.6-3.6,4.3
				c0,3,0,10,0,10h-5.7v-19.1h5.7v2.6c0,0,1.7-3.2,5.8-3.2C267.5,250.6,270.4,253.1,270.4,258.2z"/>
		</g>
		<g>
		</g>
	</g>
</g>
</svg>
