<?xml version="1.0" encoding="utf-8"?>
<!-- Generator: Adobe Illustrator 18.0.0, SVG Export Plug-In . SVG Version: 6.00 Build 0)  -->
<!DOCTYPE svg PUBLIC "-//W3C//DTD SVG 1.1//EN" "http://www.w3.org/Graphics/SVG/1.1/DTD/svg11.dtd">
<svg version="1.1" id="Layer_1" xmlns="http://www.w3.org/2000/svg" xmlns:xlink="http://www.w3.org/1999/xlink" x="0px" y="0px"
	 viewBox="0 0 267.6 287.5" enable-background="new 0 0 267.6 287.5" xml:space="preserve">
<g>
	<circle fill="#464748" cx="133.8" cy="135.7" r="133.8"/>
	<path fill="#3CA995" d="M133.8,196c-39.3,0-74.6,11.4-99.1,29.7c24.5,27,59.8,43.9,99.1,43.9s74.6-16.9,99.1-43.9
		C208.5,207.4,173.1,196,133.8,196z"/>
	<g>
		<g>
			<path fill="#FDD4BA" d="M191.2,129.6c0,37-13.9,67.1-58.8,67.1s-58.8-30-58.8-67.1s-11.3-67.1,58.8-67.1S191.2,92.6,191.2,129.6z
				"/>
			<g>
				<path fill="#754C29" d="M117.2,28.8c-25.9-6.4-43.7,17.8-41.6,37.8C70.5,73,67.1,79.1,66.1,84c1.1-0.8,2.3-1.6,3.4-2.3
					c-3.8,13.8-0.7,31.7,3.7,37.8c1.7-11.2,1.2-17.9,5.6-34.4c0.5-1.9,1.2-3.6,2.1-5.1c3.5,4.5,8.9,8,16.3,9.7
					c33.8,7.8,43.8-20.9,71-13.8c25.7,4.3,23,45.8,23,45.8c7.4-19.9,10.4-28.8,0.8-55.9c-4.8-13.6-20-16.3-35.6-16.8l0.2-0.1
					c-8.1-1.3-38.8,1.6-30.4-13.4c-4.1-0.4-8.2-0.1-11.1,5.2C114.3,37.9,114.9,34,117.2,28.8L117.2,28.8z"/>
				<path fill="#A97C50" d="M100.5,72.1c-7.1-5.1-9.7-17.5-1.3-27.9c-8.7,16.6,3.9,36.1,24.8,26.5c-16.7,3.2-25.2-16-15.6-26.4
					c-0.9,21.5,16.2,20.3,32.2,16.2c9.7-2.5,23.7-9.1,34.7-5.1c5.4,1.9,11.7,6.3,13.2,15.1c-8.4-21.7-31.7-11.8-45.4-2
					c-5.9,4.2-12,8.7-19.1,11.6C81.5,97.5,73,44.5,100.4,35.5C84.4,45.5,86.9,65.7,100.5,72.1L100.5,72.1z"/>
			</g>
		</g>
		<g>
			<g>
				<path fill="#A97C50" d="M91.5,119.4c0,0,3.3-6.2,16.8-4c5.4,0.8,10.5,1.4,10.5,1.4s-4.5,10.8-15,11c-6,0.1-10.3-2.8-12.2-6.4
					C91.4,120.9,91.2,119.9,91.5,119.4z"/>
				<path fill="#FFFFFF" d="M103.9,126c13.2-0.3,15.3-12,15.4-12.1c-2.5-0.3-6.1-0.8-9.8-1.4c-17.1-2.7-21.2,5.1-21.2,5.1
					C90.5,121.7,95.2,126.2,103.9,126z"/>
				<ellipse fill="#00A79D" cx="103.5" cy="118.2" rx="6.5" ry="5.9"/>
				<ellipse fill="#0D2530" cx="103.5" cy="118.2" rx="3.3" ry="3"/>
				
					<ellipse transform="matrix(0.9483 -0.3174 0.3174 0.9483 -32.7196 38.1482)" fill="#FFFFFF" cx="100.7" cy="119.5" rx="1.4" ry="1"/>
			</g>
			<g>
				<path fill="#A97C50" d="M169.4,119.4c0,0-3.3-6.2-16.8-4c-5.4,0.8-10.5,1.4-10.5,1.4s4.5,10.8,15,11c6,0.1,10.3-2.8,12.2-6.4
					C169.5,120.9,169.7,119.9,169.4,119.4z"/>
				<path fill="#FFFFFF" d="M157,126c-13.2-0.3-15.3-12-15.4-12.1c2.5-0.3,6.1-0.8,9.8-1.4c17.1-2.7,21.2,5.1,21.2,5.1
					C170.5,121.7,165.8,126.2,157,126z"/>
				<ellipse fill="#00A79D" cx="157.4" cy="118.2" rx="6.5" ry="5.9"/>
				<ellipse fill="#0D2530" cx="157.4" cy="118.2" rx="3.3" ry="3"/>
				
					<ellipse transform="matrix(0.9483 -0.3174 0.3174 0.9483 -29.9331 55.2503)" fill="#FFFFFF" cx="154.6" cy="119.5" rx="1.4" ry="1"/>
			</g>
			<path fill="#754C29" d="M121.5,108c0,0-2.2,5.4-7.8,7.1c-5.6,1.7-17.8-5.3-20.8-5.9c-4.4-1-9.6,2-10,4c-4.1-2.3-3.5-7.4-1.2-9.8
				c1.7-1.8,5-3.1,9.2-2.8c4.2,0.3,20,8,22.6,8.7C115.9,110,119.1,109.8,121.5,108z"/>
			<path fill="#754C29" d="M134.2,101.1c0,0,2.3,6.2,8.1,8.2c5.8,2,18.5-6,21.6-6.8c4.5-1.1,10,2.2,10.4,4.6
				c4.3-2.6,3.6-8.4,1.2-11.2c-1.8-2-5.2-3.5-9.5-3.2c-4.3,0.3-20.8,9.1-23.4,9.9C140.1,103.4,136.7,103.2,134.2,101.1z"/>
		</g>
		<g>
			<path fill="#A97C50" d="M125.9,102c1,3.3,2.4,6.5,3.4,9.8c1.1,3.7,1.5,7.2,1.2,11c-0.5,7.2-3.7,16.8-12.4,16.7
				c-0.5,0-0.7,0.6-0.4,0.9c3.2,4.3,8.8,6.3,14,6.7c4.4,0.4,10.2-0.4,12.9-4.3c0.4-0.6-0.5-1.4-0.9-0.8c-2.6,3.7-8,4.2-12.1,3.9
				c-4.7-0.4-9.9-2.3-12.9-6.2c-0.1,0.3-0.3,0.6-0.4,0.9c8.8,0,12.4-9.1,13.3-16.5c0.4-3.7,0.3-7.4-0.7-11.1
				c-1.1-4-2.8-7.6-4.5-11.4C126.1,101.7,125.8,101.8,125.9,102L125.9,102z"/>
		</g>
		<ellipse fill="#F8A07E" cx="131.1" cy="167.7" rx="14.8" ry="8.3"/>
		<g>
			<g>
				<path fill="#754C29" d="M202.8,181.1c-0.7-10.9-6.2-18.8-15.5-21.8c-3.3,9.4-18.6,14.4-30.5,11.9c-2.2-0.5-6-2.3-9.9-4.4
					c0,0.1-0.1,0.2-0.1,0.3c-3,5-8.2-1-14.8-1c-6.5,0-11.9,6.3-15.3,1.2c-3.5,1.8-6.8,3.4-9.2,3.9c-11.9,2.5-27.2-2.4-30.5-11.9
					l0.2,0.9c-0.2-0.6-0.2-0.9-0.2-0.9c-5.8,1.6-13.6,12.1-11.8,21.7c0,0.2,3.6-4.6,10.4-7.8c-9.5,11.9-8,31.3,0.4,40.6
					c-0.1-9.2,3-14.6,10.7-19.5c-3.7,7.2-7.8,23.6-0.2,38.2c3.6,6.9,10.3,11.9,18.1,16.5c-0.5-7.2,1.4-9.1,4.9-15
					c-2.9,22.5,29.4,29.2,24.4,51.4c12.2-12.9,36.2-17.1,30.7-42.9c3.5,2.3,7,7.5,6.2,11.9c6.7-10.4,11.3-25.9,4.3-39.7
					c7.5,4,9.3,8.4,9.5,11.9c0,0,9.4-3.7,14.1-21.1c4.5-16.4-5.3-30.9-5.3-30.9S202.6,179.3,202.8,181.1z"/>
			</g>
			<g>
				<defs>
					<path id="SVGID_1_" d="M202.8,181.1c-0.7-10.9-6.2-18.8-15.5-21.8c-3.3,9.4-18.6,14.4-30.5,11.9c-2.2-0.5-6-2.3-9.9-4.4
						c0,0.1-0.1,0.2-0.1,0.3c-3,5-9.1,7.7-14.8,7.8c-6.2,0.2-11.9-2.5-15.3-7.6c-3.5,1.8-6.8,3.4-9.2,3.9
						c-11.9,2.5-27.2-2.4-30.5-11.9l0.2,0.9c-0.2-0.6-0.2-0.9-0.2-0.9c-5.8,1.6-13.6,12.1-11.8,21.7c0,0.2,3.6-4.6,10.4-7.8
						c-9.5,11.9-8,31.3,0.4,40.6c-0.1-9.2,3-14.6,10.7-19.5c-3.7,7.2-7.8,23.6-0.2,38.2c3.6,6.9,10.3,11.9,18.1,16.5
						c-0.5-7.2,1.4-9.1,4.9-15c-2.9,22.5,29.4,29.2,24.4,51.4c12.2-12.9,36.2-17.1,30.7-42.9c3.5,2.3,7,7.5,6.2,11.9
						c6.7-10.4,11.3-25.9,4.3-39.7c7.5,4,9.3,8.4,9.5,11.9c0,0,9.4-3.7,14.1-21.1c4.5-16.4-5.3-30.9-5.3-30.9
						S202.6,179.3,202.8,181.1z"/>
				</defs>
				<clipPath id="SVGID_2_">
					<use xlink:href="#SVGID_1_"  overflow="visible"/>
				</clipPath>
				<g clip-path="url(#SVGID_2_)">
					<path fill="#A97C50" d="M159.4,155.6c1.9,1.3,3.7,2.7,5.3,4.2c1.7,1.5,3.2,3.1,4.6,4.7c0.3,0.4,0.7,0.8,1.1,1.2l0.1,0.1
						l0.1,0.1l0.1,0.2l0.2,0.3l0.5,0.7c0.3,0.4,0.7,0.9,1,1.3c0.3,0.4,0.6,0.9,0.9,1.3c0.3,0.4,0.6,0.9,0.9,1.3
						c0.3,0.4,0.6,0.9,0.8,1.4c0.3,0.4,0.6,0.9,0.8,1.3c0.3,0.5,0.5,0.9,0.8,1.4c2.1,3.7,3.8,7.5,5.3,11.3c0.4,1,0.7,1.9,1.1,2.9
						l0.3,0.7c0.1,0.2,0.2,0.5,0.2,0.7c0.2,0.5,0.3,1,0.5,1.4c0.3,1,0.6,1.9,0.9,2.9c0.1,0.5,0.3,1,0.4,1.4c0.1,0.5,0.3,1,0.4,1.4
						c2.1,7.7,3.5,15.4,4.5,22.9c1,7.5,1.5,14.9,1.7,22.1c0.1,1.8,0.1,3.6,0.1,5.3v0.7v0.7c0,0.4,0,0.9,0,1.3c0,0.4,0,0.9,0,1.3
						s0,0.9,0,1.3c0,1.7-0.1,3.5-0.2,5.2c0,0.6,0,1.1-0.1,1.6c0.2-0.2,0.5-0.4,0.9-0.4c0-0.4,0-0.8,0.1-1.3c0.1-1.7,0.1-3.5,0.2-5.2
						c0-0.4,0-0.9,0-1.3c0-0.4,0-0.9,0-1.3c0-0.4,0-0.9,0-1.3v-0.7v-0.7c0-1.8,0-3.6-0.1-5.4c-0.2-7.2-0.7-14.6-1.7-22.2
						c-1-7.6-2.4-15.3-4.5-23.1c-0.1-0.5-0.3-1-0.4-1.4c-0.1-0.5-0.3-1-0.4-1.5c-0.3-1-0.6-1.9-0.9-2.9c-0.1-0.5-0.3-1-0.5-1.5
						c-0.1-0.2-0.2-0.5-0.3-0.7l-0.3-0.7c-0.3-1-0.7-1.9-1.1-2.9c-1.5-3.8-3.2-7.7-5.3-11.4c-0.3-0.5-0.5-0.9-0.8-1.4
						c-0.3-0.5-0.6-0.9-0.8-1.4c-0.3-0.5-0.6-0.9-0.9-1.4c-0.3-0.4-0.6-0.9-0.9-1.3c-0.3-0.4-0.6-0.9-0.9-1.3
						c-0.3-0.4-0.7-0.9-1-1.3l-0.5-0.6l-0.2-0.3l-0.1-0.2l-0.1-0.1c0,0,0-0.1-0.1-0.1c-0.4-0.4-0.7-0.8-1.1-1.3
						c-1.5-1.7-3-3.3-4.7-4.8c-1.7-1.5-3.5-3-5.4-4.2c-3.8-2.6-8.2-4.7-12.8-6.2c-4.6-1.4-9.6-2.2-14.5-2.2c-5,0-9.9,0.8-14.6,2.2
						c-2.3,0.7-4.6,1.6-6.7,2.7l-0.8,0.4l-0.8,0.4c-0.3,0.1-0.5,0.3-0.8,0.4l-0.8,0.4l-0.4,0.2l-0.1,0.1c0,0-0.1,0-0.1,0.1l-0.2,0.1
						l-0.7,0.5l-0.7,0.5c-0.3,0.2-0.5,0.3-0.7,0.5c-2,1.3-3.7,2.7-5.4,4.2c-0.4,0.4-0.9,0.8-1.3,1.2c-0.4,0.4-0.8,0.8-1.2,1.2
						l-0.3,0.3l-0.3,0.3l-0.6,0.6c-0.4,0.4-0.8,0.8-1.1,1.3c-0.4,0.4-0.7,0.8-1.1,1.3c-0.3,0.4-0.7,0.9-1,1.3
						c-0.3,0.4-0.7,0.9-1,1.3c-0.3,0.5-0.6,0.9-0.9,1.4c-0.3,0.4-0.6,0.9-0.9,1.3c-0.3,0.5-0.6,0.9-0.8,1.4
						c-0.3,0.5-0.6,0.9-0.9,1.4c-0.3,0.5-0.5,0.9-0.8,1.4c-2.1,3.7-3.8,7.5-5.3,11.4c-0.4,1-0.7,1.9-1,2.9l-0.3,0.7
						c-0.1,0.3-0.2,0.5-0.2,0.7c-0.2,0.5-0.3,1-0.5,1.5c-0.3,1-0.6,1.9-0.9,2.9c-0.1,0.5-0.3,1-0.4,1.4c-0.1,0.5-0.3,1-0.4,1.4
						c-2.1,7.8-3.5,15.5-4.5,23.1c-0.9,7.6-1.5,15-1.7,22.2c-0.1,1.8-0.1,3.6-0.1,5.4c0,0.9,0,1.8,0,2.7c0,0.4,0,0.9,0,1.3
						c0,0.4,0,0.9,0,1.3c0,1.2,0.1,2.4,0.1,3.6c0.2,0.1,0.4,0.3,0.4,0.5c0.2,0,0.3,0.1,0.4,0.2c-0.1-1.4-0.1-2.9-0.1-4.3
						c0-0.4,0-0.9,0-1.3c0-0.4,0-0.9,0-1.3c0-0.9,0-1.8,0-2.6c0-1.8,0-3.6,0.1-5.3c0.2-7.2,0.7-14.6,1.7-22.1
						c1-7.5,2.4-15.2,4.5-22.9c0.1-0.5,0.3-1,0.4-1.4c0.1-0.5,0.3-1,0.4-1.4c0.3-1,0.6-1.9,0.9-2.9c0.2-0.5,0.3-0.9,0.5-1.4
						c0.1-0.2,0.2-0.5,0.2-0.7l0.3-0.7c0.3-1,0.7-1.9,1-2.9c1.5-3.8,3.2-7.6,5.3-11.3c0.3-0.5,0.5-0.9,0.8-1.4
						c0.3-0.4,0.6-0.9,0.8-1.3c0.3-0.4,0.6-0.9,0.8-1.4c0.3-0.4,0.6-0.9,0.9-1.3c0.3-0.4,0.6-0.9,0.9-1.3c0.3-0.4,0.7-0.9,1-1.3
						c0.3-0.4,0.7-0.9,1-1.3c0.3-0.4,0.7-0.8,1.1-1.3c0.3-0.4,0.7-0.8,1.1-1.2l0.6-0.6l0.3-0.3l0.3-0.3c0.4-0.4,0.8-0.8,1.2-1.2
						c0.4-0.4,0.8-0.8,1.2-1.1c1.7-1.5,3.4-2.9,5.3-4.2c3.8-2.6,8-4.6,12.5-6c4.5-1.4,9.4-2.2,14.2-2.2c4.9,0,9.7,0.8,14.2,2.2
						C151.4,151,155.6,153,159.4,155.6z"/>
					<path fill="#A97C50" d="M175,246.2c0-0.4,0-0.7,0-1.1c0-0.4,0-0.7,0-1.1c-0.1-5.8-0.5-11.8-1.1-17.9c-0.7-6.1-1.6-12.3-3-18.6
						c-0.7-3.1-1.5-6.3-2.5-9.5c-0.2-0.8-0.5-1.6-0.8-2.4c-0.1-0.4-0.3-0.8-0.4-1.2c-0.1-0.4-0.3-0.8-0.4-1.2
						c-0.1-0.4-0.3-0.8-0.4-1.2c-0.1-0.4-0.3-0.8-0.4-1.2c-0.3-0.8-0.6-1.6-0.9-2.3c-1.3-3.1-2.9-6.2-4.7-9.2l-0.3-0.6
						c-0.1-0.1-0.1-0.2-0.2-0.3l-0.2-0.3c-0.3-0.4-0.5-0.7-0.8-1.1c-0.5-0.8-1-1.4-1.6-2.1c-1.1-1.4-2.3-2.8-3.6-4
						c-1.3-1.3-2.8-2.5-4.3-3.5c-0.4-0.3-0.8-0.5-1.2-0.8l-0.3-0.2l-0.1,0c0,0-0.1,0-0.1-0.1l-0.2-0.1l-0.6-0.4
						c-0.8-0.5-1.7-0.9-2.6-1.3c-0.9-0.4-1.8-0.7-2.8-1c-0.9-0.3-1.9-0.5-2.9-0.8c-1-0.2-2-0.4-3-0.5c-1-0.1-2-0.2-3-0.2
						c-4,0-8,0.9-11.6,2.4c-0.9,0.4-1.8,0.8-2.6,1.3l-0.6,0.3l-0.2,0.1c-0.1,0-0.1,0.1-0.2,0.1l-0.3,0.2c-0.4,0.3-0.8,0.5-1.2,0.8
						c-1.6,1.1-3,2.3-4.3,3.5c-0.3,0.3-0.6,0.6-1,1c-0.3,0.3-0.6,0.7-0.9,1c-0.3,0.3-0.6,0.7-0.9,1l-0.4,0.5l-0.4,0.5
						c-0.5,0.7-1.1,1.4-1.6,2.1c-0.3,0.4-0.5,0.7-0.7,1.1l-0.2,0.3c-0.1,0.1-0.1,0.2-0.2,0.3l-0.3,0.6c-1.8,3-3.4,6.1-4.7,9.2
						c-0.3,0.8-0.6,1.6-0.9,2.4c-0.2,0.4-0.3,0.8-0.5,1.2c-0.1,0.4-0.3,0.8-0.4,1.2c-0.1,0.4-0.3,0.8-0.4,1.2
						c-0.1,0.4-0.3,0.8-0.4,1.2c-0.3,0.8-0.5,1.6-0.7,2.4c-1,3.2-1.8,6.3-2.5,9.5c-1.4,6.3-2.3,12.5-3,18.6
						c-0.6,6.1-1,12.1-1.1,17.9c0,0.4,0,0.7,0,1.1c0,0.4,0,0.7,0,1.1c0,0.7,0,1.4,0,2.1c0,1.4,0,2.9,0,4.3c0,1.4,0.1,2.8,0.1,4.2
						c0,0.7,0.1,1.4,0.1,2.1c0,0.7,0.1,1.4,0.1,2c0.2,4.3,0.6,8.4,1.1,12.4c0.1,0,0.1,0,0.2,0c0.2,0,0.4,0,0.6,0.1
						c-0.5-4.1-0.8-8.3-1.1-12.6c0-0.7-0.1-1.4-0.1-2c0-0.7-0.1-1.4-0.1-2.1c0-1.4-0.1-2.8-0.1-4.2c0-1.4,0-2.8,0-4.2
						c0-0.7,0-1.4,0-2.1c0-0.4,0-0.7,0-1.1c0-0.4,0-0.7,0-1.1c0.1-5.8,0.5-11.7,1.1-17.8c0.7-6.1,1.6-12.3,3-18.5
						c0.7-3.1,1.5-6.3,2.5-9.4c0.2-0.8,0.5-1.6,0.7-2.4c0.1-0.4,0.3-0.8,0.4-1.2c0.1-0.4,0.3-0.8,0.4-1.2c0.1-0.4,0.3-0.8,0.4-1.2
						c0.1-0.4,0.3-0.8,0.4-1.2c0.3-0.8,0.6-1.5,0.9-2.3c1.3-3.1,2.8-6.2,4.7-9.1l0.3-0.6c0.1-0.1,0.1-0.2,0.2-0.3l0.2-0.3
						c0.2-0.4,0.5-0.7,0.7-1.1c0.5-0.7,1-1.4,1.6-2.1l0.4-0.5l0.4-0.5c0.3-0.3,0.6-0.7,0.9-1c0.3-0.3,0.6-0.7,0.9-1
						c0.3-0.3,0.6-0.6,0.9-0.9c1.3-1.2,2.7-2.4,4.2-3.4c0.4-0.3,0.8-0.5,1.1-0.8l0.3-0.2c0.1,0,0.1-0.1,0.1-0.1l0.2-0.1l0.6-0.3
						c0.8-0.4,1.6-0.9,2.5-1.2c0.9-0.4,1.7-0.7,2.7-1c0.9-0.3,1.8-0.5,2.8-0.7c0.9-0.2,1.9-0.3,2.9-0.4c1-0.1,1.9-0.2,2.9-0.2
						c3.9,0,7.7,0.8,11.2,2.3c0.9,0.4,1.7,0.8,2.5,1.2l0.6,0.3l0.1,0.1c0,0,0,0,0.1,0l0.1,0.1l0.3,0.2c0.4,0.2,0.8,0.5,1.2,0.8
						c1.5,1,2.9,2.2,4.2,3.4c1.3,1.2,2.5,2.6,3.6,4c0.5,0.7,1.1,1.4,1.6,2.1c0.2,0.4,0.5,0.7,0.7,1.1l0.2,0.3
						c0.1,0.1,0.1,0.2,0.2,0.3l0.3,0.6c1.8,2.9,3.4,6,4.7,9.1c0.3,0.8,0.6,1.5,0.9,2.3c0.2,0.4,0.3,0.8,0.4,1.2
						c0.1,0.4,0.3,0.8,0.4,1.2c0.1,0.4,0.3,0.8,0.4,1.2c0.1,0.4,0.3,0.8,0.4,1.2c0.3,0.8,0.5,1.6,0.7,2.4c1,3.1,1.8,6.3,2.5,9.4
						c1.4,6.3,2.4,12.4,3,18.5c0.7,6.1,1,12,1.2,17.8c0,0.4,0,0.7,0,1.1c0,0.4,0,0.7,0,1.1c0,0.7,0,1.4,0,2.1c0,1.4,0,2.8,0,4.2
						c0,1.4-0.1,2.8-0.1,4.2c0,0.7-0.1,1.4-0.1,2.1c0,0.7-0.1,1.4-0.1,2c-0.3,5-0.7,9.9-1.3,14.5c0.2-0.2,0.5-0.3,0.8-0.3
						c0.6-4.5,1-9.3,1.3-14.1c0-0.7,0.1-1.4,0.1-2c0-0.7,0.1-1.4,0.1-2.1c0-1.4,0.1-2.8,0.1-4.2c0-1.4,0-2.8,0-4.2
						C175,247.7,175,247,175,246.2z"/>
					<g>
						<path fill="#A97C50" d="M58.4,217.4c0.2-2.7,0.5-5.4,1-8c0.1-0.7,0.3-1.3,0.4-2l0.2-1c0-0.2,0.1-0.3,0.1-0.5l0.1-0.5l0.3-1
							c0.1-0.3,0.2-0.6,0.3-1c0.2-0.6,0.4-1.3,0.6-1.9c1.7-5.1,4-9.9,6.7-14.5c1.3-2.3,2.7-4.5,4.2-6.7c1.5-2.2,3.1-4.3,4.7-6.4
							c3.2-4.1,6.7-8.1,10.3-11.8c3.6-3.7,7.3-7.3,11.1-10.6c3.8-3.4,7.6-6.5,11.5-9.6c3.9-3,7.8-5.9,11.7-8.6c2-1.4,3.9-2.7,5.9-4
							c2-1.3,3.9-2.5,5.9-3.7l0.2-0.1l0.2,0.1c2,1,3.8,2.1,5.7,3.2c1.9,1.1,3.6,2.2,5.4,3.3c3.5,2.2,6.9,4.4,10.1,6.7
							c6.5,4.5,12.3,9,17.6,13.5c5.3,4.5,9.9,9,13.9,13.4c4,4.4,7.4,8.6,10.1,12.6c2.7,4,4.8,7.7,6.4,11.1c1.6,3.4,2.7,6.3,3.4,8.7
							c0.1,0.3,0.2,0.6,0.3,0.9c0,0.1,0.1,0.3,0.1,0.4c0,0.2,0.1,0.3,0.1,0.4c0.1,0.5,0.3,1.1,0.4,1.5c0.1,0.5,0.2,0.9,0.3,1.3
							c0.1,0.4,0.2,0.8,0.2,1.1c0.1,0.6,0.2,1.1,0.2,1.4c0,0.3,0.1,0.5,0.1,0.5c0,0-0.1-0.2-0.1-0.5c-0.1-0.3-0.2-0.8-0.3-1.4
							c-0.1-0.3-0.2-0.7-0.2-1.1c-0.1-0.4-0.2-0.8-0.3-1.3c-0.1-0.5-0.3-1-0.4-1.5c0-0.1-0.1-0.3-0.1-0.4c0-0.1-0.1-0.3-0.1-0.4
							c-0.1-0.3-0.2-0.6-0.3-0.9c-0.8-2.4-1.9-5.3-3.5-8.6c-1.6-3.3-3.8-7-6.5-11c-2.8-4-6.1-8.2-10.1-12.5
							c-4-4.3-8.7-8.8-13.9-13.2c-5.3-4.5-11.1-9-17.6-13.4c-3.2-2.2-6.6-4.4-10.1-6.6c-1.8-1.1-3.6-2.2-5.4-3.2
							c-1.8-1.1-3.7-2.1-5.6-3.1c0.1,0,0.3,0,0.4,0c-2,1.2-3.9,2.4-5.9,3.7c-2,1.3-3.9,2.6-5.9,4c-3.9,2.7-7.8,5.6-11.7,8.6
							c-3.9,3-7.7,6.2-11.5,9.6c-3.8,3.4-7.5,6.9-11,10.6c-3.6,3.7-7,7.6-10.2,11.7c-1.6,2.1-3.2,4.2-4.6,6.3
							c-1.5,2.1-2.9,4.4-4.2,6.7c-2.6,4.6-4.9,9.4-6.6,14.4c-0.2,0.6-0.4,1.3-0.6,1.9c-0.1,0.3-0.2,0.6-0.3,0.9l-0.3,1l-0.1,0.5
							c0,0.1-0.1,0.3-0.1,0.5l-0.2,1c-0.2,0.6-0.3,1.3-0.4,1.9c-0.5,2.6-0.9,5.2-1,7.9l-0.1,0.7l0,0.4l0,0.4c0,0.5,0,1,0,1.4
							c0,0.5,0,1,0,1.4v0.7l0,0.7c0.1,1.9,0.3,3.8,0.6,5.7c0.3,1.9,0.7,3.7,1.2,5.5c0.5,1.8,1.1,3.6,1.8,5.4
							c2.7,7.1,6.9,13.5,12,19.1c5.1,5.6,11.2,10.4,17.7,14.2c6.5,3.8,13.5,6.7,20.6,8.7c7.1,1.9,14.4,2.9,21.4,2.9
							c7.1,0,13.9-1,20.2-2.7c6.4-1.7,12.2-4.1,17.5-6.9c5.2-2.9,9.9-6.2,13.9-9.7c4-3.5,7.4-7.3,10.2-11.1c2.8-3.8,5-7.6,6.7-11.3
							c0.9-1.8,1.6-3.7,2.2-5.4c0.6-1.8,1.2-3.5,1.6-5.2c0.9-3.3,1.4-6.4,1.7-9.2c0.3-2.8,0.4-5.3,0.4-7.5c0-0.6,0-1.1,0-1.6
							c0-0.5-0.1-1-0.1-1.4c0-0.9-0.1-1.7-0.2-2.5c-0.1-1.5-0.3-2.6-0.3-3.4c-0.1-0.4-0.1-0.7-0.1-0.9c0-0.2,0-0.3,0-0.3
							s0,0.1,0.1,0.3c0,0.2,0.1,0.5,0.1,0.9c0.1,0.7,0.3,1.9,0.5,3.4c0.1,0.7,0.2,1.6,0.2,2.5c0,0.5,0.1,0.9,0.1,1.4
							c0,0.5,0,1,0.1,1.6c0,2.2,0,4.7-0.3,7.5c-0.3,2.8-0.8,5.9-1.7,9.3c-0.4,1.7-0.9,3.4-1.6,5.2c-0.6,1.8-1.3,3.6-2.2,5.5
							c-1.7,3.7-3.9,7.6-6.7,11.4c-2.8,3.8-6.2,7.6-10.2,11.2c-4,3.6-8.7,6.9-14,9.8c-5.3,2.9-11.2,5.3-17.6,7
							c-6.4,1.7-13.3,2.7-20.5,2.7c-7.1,0-14.5-0.9-21.7-2.9c-7.2-2-14.3-4.9-20.9-8.8c-6.6-3.9-12.7-8.7-17.9-14.3
							c-5.2-5.7-9.4-12.2-12.2-19.4c-0.7-1.8-1.3-3.6-1.8-5.5s-0.9-3.7-1.2-5.6c-0.3-1.9-0.5-3.8-0.6-5.7l0-0.7v-0.7
							c0-0.5,0-1,0-1.5c0-0.5,0-1,0-1.4l0-0.4l0-0.4L58.4,217.4z"/>
					</g>
					<path fill-rule="evenodd" clip-rule="evenodd" fill="#A97C50" d="M73.3,253c0,0,0.4,4.8,2.4,6.8c2,2-2.8-2.4-2.8-2.4L73.3,253z
						"/>
					<path fill-rule="evenodd" clip-rule="evenodd" fill="#A97C50" d="M91.5,262.1c0,0-0.4,11,7.6,14.4c5.3,2.2-7.1-3-7.1-3
						L91.5,262.1z"/>
					<path fill-rule="evenodd" clip-rule="evenodd" fill="#A97C50" d="M173.3,268.1c0,0-0.8,6.1-3.6,8.2c-2.8,2.1,6.3-3.5,6.3-3.5
						s-1.5,1.5-1.9-4.7c-0.3-6.2,0.1-6.5,0.1-6.5L173.3,268.1z"/>
					<path fill-rule="evenodd" clip-rule="evenodd" fill="#A97C50" d="M191.9,254.8c0,0-0.2,4.3-2.2,7.2c-2,2.9,2.8-2,2.8-2
						L191.9,254.8z"/>
				</g>
			</g>
			<path fill="#603913" d="M151.5,214.9c7.1,22.5-9.5,39.5-9.5,39.5s-6.8-29-13.1-36.3c-12.3-14.1,2.1-35.2,2.1-35.2
				S138.7,198.3,151.5,214.9z"/>
			<g>
				<g>
					<path fill="#A7A9AC" d="M157.9,185c-11.4,0.4-14.9,8.6-15.3,9.7c-3.3-0.3-6.7,0-10.2,0.9c-3.5,1-6.6,2.5-9.2,4.4
						c-0.9-0.7-8.1-6-18.1-0.4c0,0,1.4,11.8,7.7,17.9c-0.1,2,0.1,4.1,0.6,6.1c3.2,11.6,16.9,18,30.6,14.2
						c13.7-3.8,22.2-16.3,19-27.9c-0.6-2-1.4-3.9-2.6-5.6C162.8,195.8,157.9,185,157.9,185z"/>
					<g id="XMLID_2_">
						<g>
							<path fill="#F8A07E" d="M157.4,186.3c3.1,6.6,1.1,15.4,1.1,15.4l0.2,0.2c-2.4-2.6-5.5-4.6-9-5.8l0,0
								C151.2,190,157.4,186.3,157.4,186.3z"/>
						</g>
						<g>
						</g>
					</g>
					<g id="XMLID_1_">
						<g>
							<path fill="#F8A07E" d="M117.9,204.9L117.9,204.9c-2.3,2.9-4,6.2-4.7,9.6l0-0.3c0,0-6.3-6.6-7-13.8
								C106.2,200.4,113.4,200.4,117.9,204.9z"/>
						</g>
						<g>
						</g>
					</g>
				</g>
				<g>
					<path fill="#FDD4C0" d="M146.8,231.7c-0.4,0.2-0.7,0.4-1.1,0.5c-0.4,0.1-0.8,0.1-1.1,0c-0.8-0.2-1.5-0.7-2-1.5
						c-0.1-0.1-0.2-0.2-0.4-0.1c-0.1,0-0.3,0.1-0.3,0.3c-0.1,1-0.4,1.8-1,2.4c-0.3,0.3-0.6,0.5-1,0.6c-0.4,0.1-0.8,0.2-1.2,0.2
						c-0.3,0-1.2-0.5-2-0.9c-0.2,0.2,0.6,1.1,0.7,1.2c2.3,0.6,4.5-0.4,4.9-2.7c1.6,1.8,3.9,1.5,5.6-0.2c0.1-0.1,0.2-1.2-0.1-1.2
						C147.5,230.8,147,231.6,146.8,231.7z"/>
					<path fill="#FDD4C0" d="M142.3,227.5l-1.8,0.5c-0.5,0.1-0.8,0.7-0.7,1.2c0.2,0.9,1.4,1.6,2.6,2.2c0.7-1.2,1.3-2.3,1.1-3.2
						C143.3,227.7,142.8,227.4,142.3,227.5z"/>
				</g>
			</g>
		</g>
		<path fill="#A97C50" d="M189.4,152.1c-2.9-6.7-13.9-6.9-15-0.7c1.2-1.2,1.9-1.8,3.4-1.9c7.8-0.6,7.8,10,1.1,12.5
			c-5.4,2-11.8-0.9-16.1-4c-3.5-2.5-7.7-8.7-18-9.9c-3.9-0.4-11.4,1.7-13.3,8.8c-1.8-7.1-9.4-9.2-13.3-8.8
			c-10.3,1.1-14.5,7.3-18,9.9c-4.3,3.2-10.7,6.1-16.1,4c-6.8-2.6-6.7-13.1,1.1-12.5c1.6,0.1,2.3,0.7,3.4,1.9c-1.2-6.2-12.2-6-15,0.7
			c-2.8,6.4,0.2,13.6,6.5,17.9c5.7,3.9,14.3,5.2,20.6,4.4c10.5-1.4,15.3-5.7,23.1-10.3c3.1-1.8,6.7-2.1,7.7-2.2
			c1.1,0.1,4.6,0.4,7.7,2.2c7.8,4.6,12.5,8.9,23.1,10.3c6.4,0.8,14.9-0.5,20.6-4.4C189.2,165.7,192.1,158.5,189.4,152.1z"/>
		<path fill="#0D2530" d="M121,218.3c0,0,0.2-0.1,0.5-0.3c0.2-0.1,0.4-0.2,0.6-0.3c0.3-0.1,0.6-0.2,0.9-0.2c0.3-0.1,0.7-0.1,1.1-0.2
			c0.4-0.1,0.8-0.1,1.2-0.1c0.4,0,0.9,0.1,1.3,0.2c0.4,0.1,0.9,0.2,1.3,0.4c0.4,0.2,0.8,0.3,1.2,0.6c0.4,0.2,0.8,0.5,1.1,0.7
			c0.3,0.3,0.7,0.5,0.9,0.8c0.3,0.3,0.5,0.5,0.7,0.8c0.2,0.2,0.4,0.5,0.5,0.7c0.2,0.2,0.3,0.4,0.4,0.6c0.2,0.3,0.3,0.5,0.3,0.5l0,0
			c0,0-0.2-0.2-0.4-0.4c-0.1-0.1-0.3-0.3-0.5-0.5c-0.2-0.2-0.4-0.4-0.7-0.6c-0.2-0.2-0.5-0.4-0.8-0.6c-0.3-0.2-0.6-0.4-0.9-0.6
			c-0.3-0.2-0.7-0.4-1.1-0.5c-0.4-0.2-0.8-0.3-1.1-0.4c-0.4-0.1-0.8-0.2-1.2-0.3c-0.4-0.1-0.8-0.2-1.1-0.2c-0.4,0-0.7-0.1-1.1-0.1
			c-0.4,0-0.7-0.1-1,0c-0.3,0-0.6,0-0.8,0c-0.2,0-0.5,0-0.7,0.1C121.3,218.3,121,218.3,121,218.3z"/>
		<path fill="#0D2530" d="M143.9,219.6c0,0,0-0.2-0.1-0.6c0-0.2,0-0.4,0-0.7c0-0.3,0.1-0.6,0.2-0.9c0.1-0.3,0.2-0.7,0.3-1
			c0.1-0.4,0.3-0.7,0.5-1.1c0.2-0.4,0.4-0.7,0.7-1.1c0.3-0.4,0.6-0.7,0.9-1c0.3-0.3,0.7-0.6,1-0.8c0.4-0.3,0.7-0.5,1.1-0.7
			c0.4-0.2,0.7-0.4,1.1-0.5c0.4-0.1,0.7-0.2,1-0.3c0.3-0.1,0.6-0.1,0.9-0.2c0.3,0,0.5-0.1,0.7-0.1c0.4,0,0.6,0,0.6,0l0,0
			c0,0-0.2,0.1-0.6,0.2c-0.2,0-0.4,0.1-0.6,0.2c-0.2,0.1-0.5,0.2-0.8,0.3c-0.3,0.1-0.6,0.3-0.9,0.5c-0.3,0.2-0.6,0.4-0.9,0.6
			c-0.3,0.2-0.6,0.5-0.9,0.7c-0.3,0.2-0.6,0.5-0.9,0.8c-0.3,0.3-0.5,0.6-0.8,0.9c-0.3,0.3-0.5,0.6-0.7,0.9c-0.2,0.3-0.4,0.6-0.6,0.9
			c-0.2,0.3-0.4,0.6-0.5,0.9c-0.1,0.3-0.2,0.5-0.3,0.8c-0.1,0.2-0.2,0.4-0.2,0.6C144.1,219.4,143.9,219.6,143.9,219.6z"/>
		<g>
			<g>
				<path fill="#FFFFFF" d="M150.9,220.4c0.6-0.6,1.3-1.1,1.9-1.5c0.7-0.5,1.4-0.9,2.1-1.4c1.4-0.9,2.9-1.7,4.4-2.4
					c1.5-0.7,3-1.3,4.6-1.9c1.6-0.5,3.2-1,4.8-1.3c-1.6,0.6-3.1,1.2-4.6,1.8c-1.5,0.6-3,1.3-4.5,2c-1.5,0.7-2.9,1.4-4.4,2.2
					c-0.7,0.4-1.4,0.8-2.1,1.2C152.3,219.5,151.6,219.9,150.9,220.4z"/>
				<path fill="#FFFFFF" d="M151.5,225c0.7-0.5,1.4-0.9,2.1-1.3c0.7-0.4,1.5-0.8,2.2-1.1c1.5-0.7,3-1.3,4.6-1.8
					c1.6-0.5,3.2-1,4.8-1.3c1.6-0.4,3.3-0.6,4.9-0.8c-1.6,0.4-3.2,0.8-4.8,1.2c-1.6,0.4-3.2,0.9-4.7,1.4c-1.6,0.5-3.1,1.1-4.6,1.7
					c-0.8,0.3-1.5,0.6-2.3,1C153,224.3,152.3,224.6,151.5,225z"/>
				<path fill="#FFFFFF" d="M151.4,222.5c0.7-0.6,1.5-1,2.3-1.5c0.8-0.5,1.6-0.9,2.4-1.3c1.6-0.8,3.3-1.6,5-2.2
					c1.7-0.6,3.4-1.2,5.2-1.6c1.8-0.5,3.5-0.8,5.4-1c-1.8,0.5-3.5,1-5.2,1.5c-1.7,0.5-3.4,1.1-5.1,1.8c-1.7,0.6-3.4,1.3-5,2
					c-0.8,0.4-1.6,0.7-2.5,1.1C153,221.6,152.2,222.1,151.4,222.5z"/>
			</g>
			<g>
				<path fill="#FFFFFF" d="M128.8,226.5c-0.8-0.2-1.6-0.3-2.5-0.3c-0.8-0.1-1.7-0.1-2.5-0.1c-1.7,0-3.3,0-5,0.2
					c-1.6,0.2-3.3,0.4-4.9,0.7c-1.6,0.3-3.2,0.7-4.8,1.3c1.6-0.3,3.2-0.6,4.9-0.8c1.6-0.2,3.3-0.4,4.9-0.6c1.6-0.2,3.3-0.3,4.9-0.3
					c0.8,0,1.6,0,2.5,0C127.2,226.4,128,226.4,128.8,226.5z"/>
				<path fill="#FFFFFF" d="M130.6,230.7c-0.8-0.1-1.7-0.1-2.5,0c-0.8,0-1.7,0.1-2.5,0.2c-1.6,0.2-3.3,0.4-4.9,0.8
					c-1.6,0.3-3.2,0.8-4.8,1.3c-1.6,0.5-3.1,1.1-4.6,1.8c1.6-0.5,3.2-1,4.7-1.4c1.6-0.4,3.2-0.8,4.8-1.2c1.6-0.3,3.2-0.6,4.8-0.9
					c0.8-0.1,1.6-0.2,2.4-0.3C129,230.9,129.8,230.8,130.6,230.7z"/>
				<path fill="#FFFFFF" d="M129.5,228.5c-0.9-0.1-1.8-0.1-2.7-0.1c-0.9,0-1.8,0-2.7,0.1c-1.8,0.1-3.6,0.4-5.4,0.7
					c-1.8,0.3-3.6,0.7-5.3,1.3c-1.7,0.5-3.5,1.1-5.1,1.9c1.8-0.5,3.5-0.9,5.3-1.4c1.8-0.4,3.5-0.8,5.3-1.1c1.8-0.3,3.6-0.6,5.3-0.8
					c0.9-0.1,1.8-0.2,2.7-0.3C127.7,228.6,128.6,228.6,129.5,228.5z"/>
			</g>
		</g>
	</g>
</g>
</svg>
