<?xml version="1.0" encoding="utf-8"?>
<!-- Generator: Adobe Illustrator 19.0.0, SVG Export Plug-In . SVG Version: 6.00 Build 0)  -->
<!DOCTYPE svg PUBLIC "-//W3C//DTD SVG 1.1//EN" "http://www.w3.org/Graphics/SVG/1.1/DTD/svg11.dtd">
<svg version="1.1" id="Layer_1" xmlns="http://www.w3.org/2000/svg" xmlns:xlink="http://www.w3.org/1999/xlink" x="0px" y="0px"
	 viewBox="0 0 2000 2000" enable-background="new 0 0 2000 2000" xml:space="preserve">
<text transform="matrix(0.9956 -9.336000e-02 9.336000e-02 0.9956 738.2082 1200.9144)" fill="#FFFFFF" font-family="'No.SevenRegular'" font-size="270.935px">C</text>
<text transform="matrix(0.9854 -0.1703 0.1703 0.9854 983.9218 947.3939)" fill="#FFFFFF" font-family="'ADLMounTiane'" font-size="234.8981px">lip</text>
<g>
	<path fill="#FFFFFF" d="M979.9,803.6c10.8-4,16.8-8.4,17.8-13.2c0-1.8,0.9-2.6,2.7-2.3c1.8,0.3,2.9,2,3,5.3
		c0.7,8.3-1.5,16.4-6.2,24.6c-4.8,8-12.3,12.8-22.7,14.1c-10.4,1.3-23.4,2.4-39,3c-7.2,31.6-11.8,62.5-13.8,92.6
		c-1.8,30.1,1.2,48.4,9.4,55.2c1.6,1.4,1.5,2.9-0.1,4.8c-1.6,1.9-5.1,1-10.3-2.7c-6.7-5-12.2-19.7-16.4-44.5
		c-4.1-24.7-3.5-60,1.8-105.6c-56.2-2.9-83.8-19.8-83-50.6c0.4-12.3,6.1-24.5,17.3-36.5c11.2-12,29.4-21.1,54.7-27.4
		c9.7-3.5,40.4-8,91.9-13.5l150.8-16.6c48.9-5.5,93.1-13.4,132.8-23.7l7.2-2.3l7.1-2.3c1.1-0.3,3.1-1.1,5.8-2.2
		c2.8-1.2,6.5-2.9,11.2-5.4c4.8-2.5,8.9-6.8,12.3-12.9c2.5-6.4,10.5-8.5,8.3,3.8c-1.8,8.7-5.3,19.6-10.5,32.8
		c-5.1,13.1-10.3,20.9-15.5,23.5c-2.4,5.3-27.4,10.1-75.1,14.5c-47.6,4.3-93.1,8.2-136.7,11.4c-43.4,3.2-83.1,6.6-119,9.9
		c-8.4,16.3-16.6,41.5-24.7,75.3C956.1,810.6,969,807.5,979.9,803.6z M895.5,745.8c-10.3,1.6-20.4,5.5-30.3,11.5
		c-9.9,6-16.6,13.6-20.6,22.7c-6.5,14.6-3.4,24.5,9.2,30c12.8,5.4,31.4,6.7,56,3.8c8.1-37.8,14-62,17.6-72.3
		C916.4,742.8,905.9,744.2,895.5,745.8z"/>
</g>
<text transform="matrix(0.9854 -0.1703 0.1703 0.9854 863.3101 1160.4414)" fill="#FFFFFF" font-family="'ADLMounTiane'" font-size="211.3065px">ampbell</text>
<text transform="matrix(-1.3859 0.2139 -0.1526 -0.9883 1481.7457 1033.8998)" fill="#FFFFFF" font-family="'No.SevenOrnaments'" font-size="302.0409px">]</text>
</svg>
