<?xml version="1.0" encoding="utf-8"?>
<!-- Generator: Adobe Illustrator 19.1.0, SVG Export Plug-In . SVG Version: 6.00 Build 0)  -->
<!DOCTYPE svg PUBLIC "-//W3C//DTD SVG 1.1//EN" "http://www.w3.org/Graphics/SVG/1.1/DTD/svg11.dtd">
<svg version="1.1" id="Layer_1" xmlns="http://www.w3.org/2000/svg" xmlns:xlink="http://www.w3.org/1999/xlink" x="0px" y="0px"
	 viewBox="604 -496 2000 2000" enable-background="new 604 -496 2000 2000" xml:space="preserve">
<g>
	<g enable-background="new    ">
		<path fill="#FFFFFF" d="M1261,529c45.6-18.4,59.4-71.4,34.2-76.4c-25-5-56.7,34.2-68.2,105.4c-8.9,55.5,16.4,97,43.4,99.9
			c23.7,2.7,56.1-22.4,62.7-48.6c0,0,0.3,0,0.2-0.3c4.7-2.3,9.3,1,7.2,9.9c-9.7,32.7-48.5,60.6-85.1,56.1
			c-33.3-4.2-73.9-36.9-65.5-109.5c10.7-88.9,73.5-129.9,111.6-124.2c33.7,5.3,41.4,64.7,8.1,95.3C1282,561.9,1261,529,1261,529z"/>
	</g>
	<g enable-background="new    ">
		<path fill="#FFFFFF" d="M1480.5,256.7c4.7,1.4,7,3.7,7.4,5.7l0.1,0.5c0.2,0.9-0.6,3.2-2,7.3c-12.5,37.1-25.1,79.7-38.5,127.6
			l0,0.1c1.5,0.3,2.6,0.4,3.4,0.2c2.6-0.4,7.5-5.4,14.6-14.6c8.4-10.9,13.7-18.5,16-23c2.9-5.5,4.2-9.6,4-12.1l0.1,0
			c1.9,1,3.2,2.8,3.7,5.8c0.5,2.9,0.3,6.5-1.1,10.2c-2.4,6.2-7.6,15.3-15.7,27.3c-6.8,10.3-12.5,18.3-16.5,24.6
			c-2.3,2.7-4.5,4.3-6.4,4.6l-0.9,0.2c-2.6,0.4-6.6-1-12.5-3.5c-8.7-3.7-13.6-7.8-14.4-12.8l0-0.2c-0.4-2.3,0.1-4.8,0.9-7.7
			c22.7-82.4,33.7-124,33.8-124.6c3.7-13.4,5.7-20.4,5.9-21L1480.5,256.7z"/>
		<path fill="#FFFFFF" d="M1499.2,293.1l19.7,6.1c4.4,1.4,6.8,3.6,7.2,5.9c0.2,1-0.9,3.8-2.3,8.2c-8.4,24.7-16.1,49.7-23.8,74.6
			c1.1,0.3,1.9,0.4,2.6,0.2l0.8-0.1c2.8-0.5,8.3-6.4,16.8-17.7c6.4-8.6,11.3-15,13.7-19.5c3.9-7.1,5.5-11.8,5.1-14.3l0-0.1l0.1,0
			c2.1,0.9,3.4,2.7,3.8,5.3l0.2,1c0.5,3.2,0,6.8-1.5,10.7c-1.6,4.1-5.4,11.3-11.7,21.3c-3.6,6-9.6,14.4-17.3,25.6
			c-3.8,6.9-7.5,10.7-10.9,11.3l-1.1,0.2c-3.3,0.6-9.9-1.7-20-7.3c-4.6-2.6-7.1-6.1-7.7-9.7l0-0.2c-0.4-2.4,0.1-5,0.9-8.2
			L1499.2,293.1z M1500.1,283.1l21.8-30.8l0.1,0c10.3,6.4,19.6,12.3,27.8,17.9l0,0.1c-6.4,5.6-13.6,12.5-21.6,20.6l-0.9,0.2
			c-9.7,1.7-18.8-0.9-27.2-7.9L1500.1,283.1z"/>
		<path fill="#FFFFFF" d="M1559,276.4c6.6,2.5,12.7,6.3,18.6,11.6c0.9-1.1,2.9-4.7,6.8-10.5c2-3.1,4.6-4.8,7.2-5.3
			c3.9-0.8,10,0.5,17.9,4.5c4.7,2.4,7.4,5.8,8.8,9.7l0.7,2c3.7,10.7,2.3,28-3.2,52.1c-1.7,7.4-4.7,17-10.2,28.3
			c-7.2,15-13.7,23.2-18.4,25.3c-4,0.8-10,0.3-17.8-1.5c-3-0.8-7.2-2.8-12.4-6.2c-7.2,29.6-11.7,55.7-11.9,78.1
			c-0.2,9.8,0.8,15.9,1.5,18.2l-0.3,0.3c-10.2,0.1-16.1-2.7-18-8.3l-0.7-2c-1.1-3.2-0.8-22,1.9-56.3c1.9-25.4,5.5-49.6,9.7-72.7
			c3.6-20.1,7.8-37.4,12.3-51.8c1.5-4.8,3.8-10,7.2-15.3L1559,276.4z M1571.4,379.1c8.6-8.7,16.8-22.5,23.7-41.3
			c3.7-10.4,5.6-19.2,6.8-26.6c0.8-4.7,1.1-10.9,1-18.4c-1.6-0.3-2.5-0.4-3.1-0.3l-1.2,0.3c-2.7,0.7-7.2,5-13.3,13.1
			c-9.2,26.6-16.2,48.7-21,65.9C1566.2,374.9,1568.7,377.4,1571.4,379.1z"/>
	</g>
	<g>
		<path fill="#FFFFFF" d="M1421.3,281.2c10.8-4,16.8-8.4,17.8-13.2c0-1.8,0.9-2.6,2.7-2.3c1.8,0.3,2.9,2,3,5.3
			c0.7,8.3-1.5,16.4-6.2,24.6c-4.8,8-12.3,12.8-22.7,14.1c-10.4,1.3-23.4,2.4-39,3c-7.2,31.6-11.8,62.5-13.8,92.6
			c-1.8,30.1,1.2,48.4,9.4,55.2c1.6,1.4,1.5,2.9-0.1,4.8c-1.6,1.9-5.1,1-10.3-2.7c-6.7-5-12.2-19.7-16.4-44.5
			c-4.1-24.7-3.5-60,1.8-105.6c-56.2-2.9-83.8-19.8-83-50.6c0.4-12.3,6.1-24.5,17.3-36.5c11.2-12,29.4-21.1,54.7-27.4
			c9.7-3.5,40.4-8,91.9-13.5l150.8-16.6c48.9-5.5,93.1-13.4,132.8-23.7l7.2-2.3l7.1-2.3c1.1-0.3,3.1-1.1,5.8-2.2
			c2.8-1.2,6.5-2.9,11.2-5.4c4.8-2.5,8.9-6.8,12.3-12.9c2.5-6.4,10.5-8.5,8.3,3.8c-1.8,8.7-5.3,19.6-10.5,32.8
			c-5.1,13.1-10.3,20.9-15.5,23.5c-2.4,5.3-27.4,10.1-75.1,14.5c-47.6,4.3-93.1,8.2-136.7,11.4c-43.4,3.2-83.1,6.6-119,9.9
			c-8.4,16.3-16.6,41.5-24.7,75.3C1397.5,288.2,1410.4,285,1421.3,281.2z M1336.9,223.4c-10.3,1.6-20.4,5.5-30.3,11.5
			c-9.9,6-16.6,13.6-20.6,22.7c-6.5,14.6-3.4,24.5,9.2,30c12.8,5.4,31.4,6.7,56,3.8c8.1-37.8,14-62,17.6-72.3
			C1357.8,220.4,1347.3,221.7,1336.9,223.4z"/>
	</g>
	<g enable-background="new    ">
		<path fill="#FFFFFF" d="M1362.4,519c3.3,0.2,6.2,0.8,8.8,1.5c1.1,0.3,2.3,0.9,3.8,1.5l0.1,0c1-3.9,1.6-6.3,1.9-6.8l0.1,0l16.7,5.1
			c4.5,1.4,6.9,3.5,7.2,5.5c0.2,1-0.7,3.4-2,7.3c-9,26.3-15.9,48.8-21.4,67.3c1.4,0.3,2.6,0.4,3.3,0.3c2.1-0.4,6-4.4,11.9-11.7
			c2.9-3.6,7.6-9.5,13.2-18c4.1-6.4,6.2-11.1,6.7-13.8c0.2-0.8,0.3-1.7,0.3-2.9l0.1,0c1.8,1.1,2.8,2.5,3.2,4.7l0.2,0.9
			c0.7,4.3-0.6,9.3-3.9,15c-1.4,3.2-4.9,9.3-10.7,18.1c-7.8,11.6-12.2,18.2-13.2,19.8c-2.9,4.7-4.9,7-5.6,7.1
			c-1.2,0.9-2.3,1.6-3.5,1.8l-0.9,0.2c-2.6,0.5-7-0.9-13.2-3.8c-2.3-1.1-5.1-2.6-8.3-4.9c-1.5-1.5-2.6-2.7-3-3.6
			c-3.1,4.1-5.9,8.2-8.8,12.2c-2,2.6-4.3,4.1-6.9,4.5l-0.3,0.1c-2.9,0.5-7.7-0.3-13.9-3.4c-4.3-2.1-7-4.8-8.1-7.4
			c-0.8-1.8-1.2-3.2-1.4-4.4l-0.3-1.7c-1.6-9.4,0.1-23.4,5.7-41.9c1.9-6.2,4.6-13,8.1-20.4c7.1-14.4,14.2-23.6,20.8-27.8
			C1351.1,519,1355.5,518.7,1362.4,519z M1366.6,526.8c-2.2,2-5.1,5.4-8.5,10.4c-4.4,6.7-7.6,13.1-10,18.9
			c-8.4,19.8-12.5,36.9-12.2,51.2c1.2,0.3,2.4,0.4,3.3,0.3l0.2,0c0.1,0,0.1,0,0.1,0.1c2.2-0.4,5.9-3.5,10.9-9.3
			c3.6-4.1,5.6-6.4,5.9-7.1l16.1-58.7c-1.5-2.2-3.3-4.1-5.6-5.6L1366.6,526.8z"/>
		<path fill="#FFFFFF" d="M1516.1,490.8c1.7-0.3,4,0.3,7.2,1.4c8.6,1.7,13.7,4.1,16,5.3c2.2,1.2,3.5,2.5,3.7,4.1l0,0.1
			c0.1,0.8-0.4,2.7-1.3,5.6c-8.5,24.9-15.6,47.7-21.9,68.6c0.9,0.2,1.6,0.2,2.2,0.1l0.7-0.1c2-0.4,5-3.3,9.3-8.4
			c2.4-2.8,7.7-9.1,14.8-19.6c5.2-7.6,7.7-13.2,7.9-16.2l0.1-1.8l0.1,0c1.7,0.9,2.8,2.4,3.2,4.7l0.1,0.8c0.7,4.2-0.5,9.2-3.8,14.9
			c-2.1,4.4-6.9,12.7-15.1,24.6c-4.5,6.6-8.3,12-11.1,16.5c-2.2,3.4-4.7,5.4-7.3,5.9l-0.6,0.1c-2.1,0.4-5.4-0.6-10.2-2.6
			c-2.7-1.2-6-2.8-9.8-5.2c-2.5-2.1-3.9-4-4.5-5.7c0-0.2-0.2-0.8-0.5-1.8c-0.4-2.1,0.3-4.5,1.1-7.6c0-0.3,5.6-21,16.7-61.8l-0.1,0
			c-1.8,0.3-7,5.5-15.5,16c-5.5,6.8-9.3,12.3-11.3,16.3c-0.6,0.8-1.5,4-3.2,9.3c-4.5,14.2-9.5,30.2-14.8,48.4
			c-0.4,1.4-0.6,2.2-0.5,2.3c-0.5,0-3.6-1.2-8.6-3.6c-5-2.4-7.8-5.1-9.1-8c-0.4-0.9-0.7-1.7-0.8-2.5l0-0.1c-0.4-2.1,0-4.9,1.2-8.2
			l15.8-58.5c0.3-1.1,0.5-1.8,0.5-2.1c-2.3,0.5-8.9,7.5-19.3,21c-3.4,4.4-6,8.3-7.6,11.5c-1.9,3.5-2.9,6.8-3.6,9.2
			c-6,19.2-11,34.7-14.2,46.8c-0.8,2.8-1.2,4.1-1.3,4.2c-4.5-1.6-8.9-3.6-12.9-6.4c-3.2-2.3-4.9-4.8-5.3-7.2l-0.2-1
			c-0.3-1.9,0.2-4.9,1.5-8.8c0-0.1,6.3-25.5,20.6-75.9l1.6-5.7c1.2,0.5,6,1.8,14.5,4.3c5.8,1.7,9,3.9,9.5,6.2l0,0.1
			c0.2,0.9-0.3,2.8-1.3,5.3c-0.2,0.5-0.3,0.7-0.3,0.8c7.6-10.6,11.7-16.6,12.2-17.8c3.1-5.1,6.3-8,9.4-8.5c1.9-0.3,3.5-0.1,5,0.6
			c7.9,2.3,13.2,3.8,15.8,4.8c3.7,1.5,5.7,3.2,6,4.9l0.1,0.4c0.1,0.8-0.2,2.3-1.1,4.6l0,0.1c7-9.9,11-15.8,11.8-17.5
			c2.6-4,5.2-6.2,7.7-6.7L1516.1,490.8z"/>
		<path fill="#FFFFFF" d="M1574.1,475c5.9,2.2,11.4,5.7,16.8,10.4c0.8-1,2.6-4.2,6.1-9.4c1.8-2.8,4.2-4.3,6.5-4.8
			c3.5-0.7,9,0.4,16.1,4c4.3,2.2,6.7,5.2,7.9,8.7l0.6,1.8c3.3,9.6,2.1,25.2-2.9,46.9c-1.6,6.7-4.3,15.3-9.2,25.5
			c-6.5,13.5-12.3,20.9-16.6,22.8c-3.6,0.7-9,0.3-16-1.3c-2.7-0.7-6.5-2.5-11.1-5.6c-6.5,26.7-10.5,50.1-10.7,70.2
			c-0.2,8.8,0.7,14.3,1.4,16.4l-0.3,0.3c-9.2,0.1-14.5-2.4-16.2-7.5l-0.6-1.8c-1-2.9-0.7-19.8,1.7-50.7c1.7-22.8,5-44.6,8.7-65.4
			c3.3-18.1,7.1-33.7,11.1-46.6c1.3-4.3,3.4-9,6.5-13.8L1574.1,475z M1585.2,567.4c7.8-7.8,15.1-20.2,21.3-37.2
			c3.3-9.4,5.1-17.3,6.1-23.9c0.7-4.2,1-9.8,0.9-16.6c-1.4-0.3-2.3-0.3-2.8-0.3l-1.1,0.3c-2.4,0.6-6.5,4.5-12,11.8
			c-8.3,24-14.5,43.8-18.9,59.3C1580.6,563.6,1582.8,565.9,1585.2,567.4z"/>
		<path fill="#FFFFFF" d="M1664.5,422c13.8,3.9,21.2,6.7,22.3,8.4c0.6,0.9,0.9,1.7,1,2.4c0,1.2-3.5,10.6-9.2,28.8l-8.6,28.2
			l16.5-21.8c2.1-1.9,4.1-3.1,6.1-3.5c4.2-0.7,9.9,1.1,17.3,5.6c2.8,2.2,4.4,5,5,8.2l0.4,2.3c1.5,8.8-0.8,23.2-6.9,43
			c3.8,2,5.9,4.1,6.3,6.2l0.1,0.8c0.2,1.3-0.4,3.2-1.9,5.5l-0.2,0c-2.7-1.7-5.3-3.2-7.8-4.2c-8.4,19.2-17,31.6-25.7,37.6
			c-5,0.9-11.2-0.1-18.7-2.7c-4.1-2-7.6-4.6-10.3-7.7l0-0.2c-0.3,0.4-1.8,5.9-4.7,16.5l-0.2,0c-11.1-4.3-17-8.5-17.7-12.7l-0.4-2.1
			c-0.3-1.7,1.3-7.6,4.1-17.6c21.6-79.1,32.3-119.5,33-121.2L1664.5,422z M1663.3,556.8c5.9-5.1,13.1-15.2,21.4-30.5l0-0.2
			c-2.4,0.1-3.7,0.2-4.1,0.3c-7.6,1.3-14.4,6.1-19.8,14.5c-2.2,3.5-2.8,6.8-2.4,9.4C1658.9,553.2,1660.5,555.3,1663.3,556.8z
			 M1678.5,518.1c1.2-0.2,4-0.6,8.2-1.2c5.6-13,8.3-24.3,8.1-33.8c-1.2-0.2-2.1-0.3-3.1-0.1l-0.9,0.2c-3.7,0.6-12.7,10.6-27.1,29.7
			c-1.4,2.3-2.6,6.1-3.8,11.4C1665.1,521.5,1671.4,519.3,1678.5,518.1z"/>
		<path fill="#FFFFFF" d="M1771.9,451.5c7.3,2.4,13.3,7.8,17.9,15.9l0.8,1.8c0.2,4.3-0.5,9.1-3,14.6c-4.8,10.3-16,16.7-32.6,19.6
			c-3.3,0.6-5.9,0.9-7.9,1c-3.9,9.1-6.1,16.7-7.1,22.3c-1.2,6.1-1.7,10.3-1.2,13.1c1.3,0.3,2.5,0.4,3.4,0.2
			c2.9-0.5,8.6-6.1,17.3-16.4c10.3-12,15.8-20.6,16-26c2.1,0.8,3.3,2.4,3.8,4.9c0.8,4.4-1,9.5-5.1,15.4c-0.5,1.7-5.4,8.8-14.7,21.2
			c-4.7,6.2-8.8,11.5-12.1,16c-2,2.2-4,3.5-6.1,3.9l-1.1,0.2c-4.1,0.7-9.5-1.3-16.4-5.2c-3.5-2.4-5.6-5.5-6.2-9.4l-0.4-2.3
			c-1.6-9.3,0.8-24.2,7.3-44.7c-4.2-2.1-6.5-4.4-7-7c-0.3-1.9,0.5-4,2.4-6.2c3,2,5.6,3.4,8,4.4l0.1,0c2.5-6.4,6.4-14.3,12.4-23.3
			c4.8-7.3,9.1-12.1,12.3-14.6c1.1-0.8,1.9-1.3,2.3-1.3C1759.8,449,1765.6,449.4,1771.9,451.5z M1752.7,494.7l1.1-0.2
			c7.8-1.4,14.7-6.4,20.6-15.2c1.9-3.8,2.6-7,2.1-9.8s-2.1-5-4.9-6.7c-6.5,5.7-14.1,16.5-22.6,32.1
			C1749.9,495.1,1751.1,495,1752.7,494.7z"/>
		<path fill="#FFFFFF" d="M1833.3,400.3c4.2,1.3,6.3,3.3,6.6,5.1l0.1,0.4c0.1,0.8-0.5,2.9-1.8,6.6c-11.2,33.3-22.6,71.7-34.6,114.8
			l0,0.1c1.3,0.3,2.4,0.3,3.1,0.2c2.3-0.4,6.7-4.8,13.1-13.2c7.5-9.8,12.3-16.7,14.4-20.7c2.6-5,3.7-8.6,3.6-10.9l0.1,0
			c1.7,0.9,2.8,2.5,3.3,5.2s0.3,5.8-1,9.2c-2.2,5.6-6.8,13.7-14.1,24.5c-6.2,9.2-11.3,16.5-14.8,22.1c-2.1,2.5-4,3.8-5.8,4.1
			l-0.8,0.1c-2.3,0.4-5.9-0.9-11.2-3.2c-7.8-3.4-12.2-7-13-11.5l0-0.2c-0.4-2,0.1-4.3,0.8-6.9c20.4-74.1,30.4-111.5,30.4-112.1
			c3.4-12.1,5.1-18.4,5.3-18.9L1833.3,400.3z"/>
		<path fill="#FFFFFF" d="M1879.4,392.3c4.2,1.3,6.3,3.3,6.6,5.1l0.1,0.4c0.1,0.8-0.5,2.9-1.8,6.6c-11.2,33.3-22.6,71.7-34.6,114.8
			l0,0.1c1.3,0.3,2.4,0.3,3.1,0.2c2.3-0.4,6.7-4.8,13.1-13.2c7.5-9.8,12.3-16.7,14.4-20.7c2.6-5,3.7-8.6,3.6-10.9l0.1,0
			c1.7,0.9,2.8,2.5,3.3,5.2c0.5,2.6,0.3,5.8-1,9.2c-2.2,5.6-6.8,13.7-14.1,24.5c-6.2,9.2-11.3,16.5-14.8,22.1
			c-2.1,2.5-4,3.8-5.8,4.1l-0.8,0.1c-2.3,0.4-5.9-0.9-11.2-3.2c-7.8-3.4-12.2-7-13-11.5l0-0.2c-0.4-2,0.1-4.3,0.8-6.9
			c20.4-74.1,30.4-111.5,30.4-112.1c3.4-12.1,5.1-18.4,5.3-18.9L1879.4,392.3z"/>
	</g>
	<g enable-background="new    ">
		<path fill="#FFFFFF" d="M1221.5,736c-29,12.1-9.1-17.5-8.3-17.7c297.8-125.1,575.6-166.5,664-160.2c66.3,4.7,72,44.5,48.1,64.7
			c0,0-17.2-14.2-69.6-18C1778.5,599.6,1541.3,601.1,1221.5,736z"/>
	</g>
</g>
</svg>
