<?xml version="1.0" encoding="utf-8"?>
<!-- Generator: Adobe Illustrator 18.0.0, SVG Export Plug-In . SVG Version: 6.00 Build 0)  -->
<!DOCTYPE svg PUBLIC "-//W3C//DTD SVG 1.1//EN" "http://www.w3.org/Graphics/SVG/1.1/DTD/svg11.dtd">
<svg version="1.1" id="Layer_1" xmlns="http://www.w3.org/2000/svg" xmlns:xlink="http://www.w3.org/1999/xlink" x="0px" y="0px"
	 viewBox="0 0 123.2 39" enable-background="new 0 0 123.2 39" xml:space="preserve">
<g>
	<path fill="#EDC649" d="M16,21.5c-2.7,6.5-7.8,8.8-11.4,7.3C1,27.4-0.5,22,3.3,19.3c2-1.4,4.9-1.8,8-2.1c0.6-4.5,1.3-6.6,2.7-7.9
		c1.6-1.5,6.7-1,6.4,0.2c-0.1,0-1.4-1.7-2.9,6.9c1-0.2,1.9-0.5,2.8-0.9c0,0,0.2,0.4,0.3,0.6c1,2.2,0.4,3.9-0.9,4.9
		C18.9,21.4,17.6,21.5,16,21.5z M5.4,27.9c2.4,0.9,4.2-1.4,5.3-6.5c-2,0-3.9,0.1-4.9,0.8C3.1,23.8,3,26.9,5.4,27.9z M23.4,5.6
		C29,6.4,33.8,5.2,37,3.7c2.7-1.3,3.3-2.7,3.3-2.7c2.8,1.6,2.7,5.9-1.3,7.5c-3.3,1.3-10.6,1.3-16.4,0.2C16.7,7.5,11,7,5.6,10.8
		c-0.1,0.1-0.2,0.1-0.3,0.2c-1.3,0-1.7-1.7-0.1-2.7C11.5,4.2,17.3,4.7,23.4,5.6z"/>
	<path fill="#EDC649" d="M25.6,18.8c-0.4,2-1.1,5.5-0.5,5.7c0.6,0.2,1.5-1.1,2-2.6h0c0.4-0.1,0.7,0.1,0.5,0.8
		c-0.8,2-2.8,3.9-4.2,3.4c-1.8-0.8-2.2-3.9-1.8-6.9c0.3-3.1,1.1-6.5,1.9-7.8c1.4-1.9,4.6,0.1,4.6,0.1S26.5,13.3,25.6,18.8z"/>
	<path fill="#EDC649" d="M33.2,21.5c0.4-0.1,0.7,0.1,0.5,0.8c-0.8,2-2.5,3.9-4.5,3.7c-2.3-0.3-3-3.1-2.2-6.6
		c0.6-2.5,3.5-3.4,5.1-2.3c0,0-0.9,1.4-1.3,3.5c-0.5,2.1-1,3.9-0.3,4.1C31.3,25.1,32.7,22.9,33.2,21.5L33.2,21.5z M30.6,16.2
		c-1.4-0.3-2.1-1.7-1.9-2.7c0.4-1.5,1.9-2.3,3.5-1.8c1.6,0.5,2,2,1.4,3.1C33.1,15.8,31.8,16.4,30.6,16.2z"/>
	<path fill="#EDC649" d="M42.5,19.9c0.4-0.1,0.7,0.1,0.5,0.8c-0.5,1.1-1.5,1.7-2.7,2c-1.2,2.3-3.6,3.4-4.8,2.8c-0.1,0-0.1,0-0.1-0.1
		c-0.1,0.4-0.1,0.8-0.2,1.2c1.4-0.1,2.8,0.1,4,0.5c3,1,2.6,4.7,1.2,5.7c0,0-0.5-1.2-2.6-1.9c-1-0.3-2.2-0.5-3.4-0.7
		c-0.7,2.5-1.7,4.4-2.8,5.7c-2.7,3.2-8.2,2.6-6.7-2.4c0.8-2.7,3.3-4.9,6.2-6c0.3-1.9,0.5-4.1,0.6-6.4c0.2-4.7,2.5-5.7,4.1-5.1
		c0,0,0.1,0.3,0.1,1s0,1.4,0,2.1c0.2-1.5,0.5-2.8,2.1-2.9c1.7-0.1,3.6,1.6,2.9,5l0,0.1C41.6,21.1,42.2,20.7,42.5,19.9L42.5,19.9z
		 M30.4,30.5c-2.1,0.4-4,1.6-4.7,3.8c-0.7,2.1,0.5,3,2.1,1.3C29,34.5,29.8,32.7,30.4,30.5z M36.1,23.7c-0.3,0.1-0.5,0.3-0.6,0.5
		l0,0.4C35.7,24.6,35.9,24.2,36.1,23.7z M36.5,22.7l0.3-1c0.5-2,0.8-3.4,0.2-3.6c-0.6-0.2-0.5,0.8-1.2,3.7l-0.1,1.6
		C35.8,23.1,36.1,22.9,36.5,22.7z"/>
	<path fill="#EDC649" d="M45.7,17.7c1.4-6.7,7.2-9.3,10-8.6c3.2,0.8,3.8,5.7,0.8,8c-2.3,1.7-5.2-1.8-5.2-1.8
		c3.6-1.1,5.7-4.8,3.8-5.4c-1.9-0.6-3.9,2.2-5.2,7.5c-1.6,6.3,0,12,4.9,11c3.4-0.7,7.1-1.6,9.6-0.7c3.5,1.1,3.3,4.8,1,6.3
		c0,0-0.4-1.3-2.4-2.3c-1.4-0.7-5.5-1.6-8.7-1.2C47.8,31.3,44.1,25.5,45.7,17.7z"/>
	<path fill="#EDC649" d="M62.1,16.8c1.2-0.8,2.8-0.7,3.5,0.1c0,0-0.8,1.6-1.3,4.1c-0.3,1.9-0.6,3.4,0,3.6c0.7,0.1,1.2-1,1.7-2.4h0
		c0.4-0.1,0.7,0.1,0.5,0.8c-0.8,2-2.2,3.4-3.8,3c-1.1-0.3-1.7-1.4-2-3.1c-0.3,1.3-0.6,2.9-2.2,3c-1.7,0.1-3.4-2.1-2.9-5
		c0.6-3,3.8-4.9,6.1-4.2C61.7,16.6,61.9,16.6,62.1,16.8z M61.3,17.5c-0.9,0-1.4,1.2-1.7,2.9c-0.2,1.6-0.1,3,0.2,3.1
		c0.4,0,0.4-0.6,0.8-3c0-0.5,0.1-1,0.2-1.6C60.9,18.4,61,17.9,61.3,17.5z"/>
	<path fill="#EDC649" d="M75,18.8c1-2.3,2.5-2.8,3.5-2.6c0.9,0.2,1.8,1.8,1.2,4.7c-0.5,1.9-1.3,3.6-0.6,3.7c0.7,0.1,1.8-1.1,2.3-2.6
		h0c0.4-0.1,0.7,0.1,0.5,0.8c-0.8,2-2.3,3.5-3.9,3.2c-1.9-0.3-3-2-2.3-4.8c0.7-2.5,1.2-3.2,0.8-3.3c-0.4-0.1-0.6,0.6-1.6,3.4
		c-0.1,0.8-0.4,1.6-0.7,2.6c-0.8,2.4-3,2-4.1,1.6c0,0,0.3-1.5,0.8-4c0.5-2.5,1.2-3.6,0.8-3.6c-0.4-0.1-0.6,0.7-1.8,3.8
		c-0.6,3.8-2.5,4.4-4,3.8c0,0-0.1-0.3-0.1-1c0-4.8-0.1-7.7,1.2-8.6c1.4-0.9,4.1,0.3,4.1,0.3s-0.4,0.4-0.7,2.4c1.1-2.3,2.5-3,3.4-2.6
		C74.3,16.4,74.9,17.1,75,18.8z"/>
	<path fill="#EDC649" d="M91.3,19.9c0.4-0.1,0.7,0.1,0.4,0.8c-0.4,0.9-1.3,1.4-2.5,1.7c-1,2.5-3.3,3.8-4.7,3.4
		c-0.2-0.1-0.4-0.2-0.5-0.4c-0.4,2.6-1,4.5-1.7,5.4c-1.4,1.8-4.5-0.3-4.6-0.3c0.1-0.1,2.5-2.3,2.7-9.2c0.1-4.7,2.5-5.7,4.1-5.1
		c0,0,0.1,0.3,0.1,1c0,0.5,0,1,0,1.4c0.3-1.2,0.8-2.1,2.1-2.2c1.7-0.1,3.6,1.6,2.9,5c0,0,0,0.1,0,0.1C90.4,21.1,91,20.7,91.3,19.9
		L91.3,19.9z M84.4,23.2c0.3-0.3,0.6-0.5,1.1-0.7l0.2-0.1l0.1-0.6c0.4-2.1,0.6-3.6,0-3.8c-0.5-0.1-0.7,0.6-1.2,2.7
		C84.5,21.7,84.4,22.4,84.4,23.2z M85.4,23.4c-0.7,0.3-0.9,1.1-0.6,1.2C85,24.6,85.2,24.1,85.4,23.4z"/>
	<path fill="#EDC649" d="M94.3,18.6c0.3-1,0.8-2.1,2-2.2c1.7-0.2,3.4,1.6,2.7,4.5c-0.9,3.8-4,5.2-6,5c-1.7-0.2-2.9-1.5-2.9-3.2
		c0-3.1,0.2-5.9,0.7-8.4c-2.4-0.4-5.1-0.2-6.8,0.3c-2.2,0.6-2.6,1.8-2.6,1.8c-1.2-0.9-1.8-4.6,0.9-5.5c3-1,6.5,0.4,9,1.4
		c0.7-2.5,1.7-4.5,3-5.9c2.8-3.1,9.4-1.4,8.3,3.7c-0.8,3.6-4.3,5.1-7.7,5C94.6,16.1,94.4,17.3,94.3,18.6z M93.9,21.8
		c-0.2,1.6-0.7,3-0.4,3c0.5,0.1,0.8-1,1.4-3.5c0.4-1.8,0.6-3.3,0.2-3.3C94.7,17.9,94.4,19.3,93.9,21.8z M95.3,13.1
		c2.8,0,4.1-1.5,4.5-3.8c0.4-2.5-0.1-4.7-1.9-2.7C97.1,7.7,96.1,10,95.3,13.1z"/>
	<path fill="#EDC649" d="M103.4,22.9c0.1,1,0.5,1.8,1.2,1.9c1.9,0.4,4-1.4,4.5-3h0c0.4-0.1,0.7,0.1,0.4,0.8
		c-0.7,1.7-3.3,3.9-6.3,3.4c-2.5-0.5-4.4-2.2-3.9-5.3c0.5-2.8,2.7-5,6.3-4.4C110.2,17,109.5,19.8,103.4,22.9z M103.4,21.8
		c1.9-1.8,2.4-4.6,1.8-4.8c-0.8-0.2-1.2,2-1.6,3.5C103.5,20.9,103.4,21.3,103.4,21.8z"/>
	<path fill="#EDC649" d="M112.9,18.8c-0.4,2-1.1,5.5-0.5,5.7c0.6,0.2,1.5-1.1,2-2.6h0c0.4-0.1,0.7,0.1,0.5,0.8
		c-0.8,2-2.8,3.9-4.2,3.4c-1.8-0.8-2.2-3.9-1.8-6.9c0.3-3.1,1.1-6.5,1.9-7.8c1.4-1.9,4.6,0.1,4.6,0.1S113.9,13.3,112.9,18.8z"/>
	<path fill="#EDC649" d="M118.1,24.5c0.6,0.2,1.3-1,1.8-2.4h0c0.4-0.1,0.7,0.1,0.4,0.8c-0.8,2-2.2,3.5-3.8,3c-1.8-0.5-3-3.3-2.5-6.7
		c1-7.6,4.4-14.6,7.6-13.5c1.8,0.7,0,6.6-3.6,12.7L118,19C117.5,21.5,117.2,24.1,118.1,24.5z M118.5,15.7c1.7-3.3,2.5-5.9,1.9-6.4
		C119.8,8.8,119.1,12.1,118.5,15.7z"/>
</g>
</svg>
