<?xml version="1.0" encoding="utf-8"?>
<!-- Generator: Adobe Illustrator 18.0.0, SVG Export Plug-In . SVG Version: 6.00 Build 0)  -->
<!DOCTYPE svg PUBLIC "-//W3C//DTD SVG 1.1//EN" "http://www.w3.org/Graphics/SVG/1.1/DTD/svg11.dtd">
<svg version="1.1" id="Layer_1" xmlns="http://www.w3.org/2000/svg" xmlns:xlink="http://www.w3.org/1999/xlink" x="0px" y="0px"
	 viewBox="228.5 228.5 55 55" enable-background="new 228.5 228.5 55 55" xml:space="preserve">
<g>
	<path id="twitter-4-icon" fill="#44BE9F" d="M256,229c-14.9,0-27,12.1-27,27c0,14.9,12.1,27,27,27c14.9,0,27-12.1,27-27
		C283,241.1,270.9,229,256,229z"/>
	<g id="XMLID_1_">
		<g>
			<path fill="#FFFFFF" d="M241.7,267.4c3.3,0.4,6.6-0.5,9.3-2.6c-2.7-0.1-5.1-1.9-5.9-4.4c1,0.2,1.9,0.1,2.8-0.1
				c-3-0.6-5.1-3.4-5-6.3c0.8,0.5,1.8,0.8,2.8,0.8c-2.8-1.9-3.6-5.6-1.9-8.5c3.1,3.9,7.7,6.4,12.9,6.7c-0.9-4,2.1-7.8,6.1-7.8
				c1.8,0,3.4,0.8,4.6,2c1.4-0.3,2.8-0.8,4-1.5c-0.5,1.5-1.5,2.7-2.8,3.5c1.3-0.2,2.5-0.5,3.6-1c-0.8,1.3-1.9,2.4-3.1,3.3
				c0.4,9-6.2,18.9-17.8,18.9C247.8,270.2,244.5,269.2,241.7,267.4z"/>
		</g>
		<g>
		</g>
	</g>
</g>
</svg>
