<?xml version="1.0" encoding="utf-8"?>
<!-- Generator: Adobe Illustrator 19.1.0, SVG Export Plug-In . SVG Version: 6.00 Build 0)  -->
<!DOCTYPE svg PUBLIC "-//W3C//DTD SVG 1.1//EN" "http://www.w3.org/Graphics/SVG/1.1/DTD/svg11.dtd">
<svg version="1.1" id="Layer_1" xmlns="http://www.w3.org/2000/svg" xmlns:xlink="http://www.w3.org/1999/xlink" x="0px" y="0px"
	 viewBox="228.5 228.5 55 55" enable-background="new 228.5 228.5 55 55" xml:space="preserve">
<g>
	<path id="twitter-4-icon" fill="#44BE9F" d="M256,229c-14.9,0-27,12.1-27,27c0,14.9,12.1,27,27,27c14.9,0,27-12.1,27-27
		C283,241.1,270.9,229,256,229z"/>
	<g id="XMLID_1_" display="none">
		<g display="inline">
			<path fill="#FFFFFF" d="M272.2,248c-0.8,1.3-1.9,2.4-3.1,3.3c0.4,9-6.2,18.9-17.8,18.9c-3.5,0-6.8-1.1-9.6-2.9
				c3.3,0.4,6.6-0.5,9.3-2.6c-2.7-0.1-5.1-1.9-5.9-4.4c1,0.2,1.9,0.1,2.8-0.1c-3-0.6-5.1-3.4-5-6.3c0.8,0.5,1.8,0.8,2.8,0.8
				c-2.8-1.9-3.6-5.6-1.9-8.5c3.1,3.9,7.7,6.4,12.9,6.7c-0.9-4,2.1-7.8,6.1-7.8c1.8,0,3.4,0.8,4.6,2c1.4-0.3,2.8-0.8,4-1.5
				c-0.5,1.5-1.5,2.7-2.8,3.5C269.9,248.8,271.1,248.5,272.2,248z"/>
		</g>
		<g display="inline">
		</g>
	</g>
</g>
<g display="none">
	<g id="XMLID_2_" display="inline">
		<g>
			<rect x="242.2" y="251.2" fill="#FFFFFF" width="5.9" height="19.1"/>
			<path fill="#FFFFFF" d="M245.1,241.6c1.9,0,3.5,1.6,3.5,3.5s-1.6,3.5-3.5,3.5c-1.9,0-3.5-1.6-3.5-3.5S243.2,241.6,245.1,241.6z"
				/>
			<path fill="#FFFFFF" d="M270.4,258.2c0,5.1,0,12.1,0,12.1h-5.9c0,0,0-7.3,0-10s-1-4.3-3.2-4.3c-2.4,0-3.6,1.6-3.6,4.3
				c0,3,0,10,0,10h-5.7v-19.1h5.7v2.6c0,0,1.7-3.2,5.8-3.2C267.5,250.6,270.4,253.1,270.4,258.2z"/>
		</g>
		<g>
		</g>
	</g>
</g>
<path id="github-icon" fill="#FFFFFF" d="M256,240.6c-8.7,0-15.8,7.1-15.8,15.8c0,7,4.5,12.9,10.8,15c0.8,0.1,1-0.3,1-0.8v-2.9
	c-4.4,1-5.3-1.9-5.3-1.9c-0.7-1.8-1.8-2.3-1.8-2.3c-1.4-1,0.1-1,0.1-1c1.6,0.1,2.4,1.6,2.4,1.6c1.4,2.4,3.7,1.7,4.6,1.3
	c0.1-1,0.6-1.7,1-2.1c-3.5-0.4-7.2-1.8-7.2-7.8c0-1.7,0.6-3.1,1.6-4.2c-0.2-0.4-0.7-2,0.2-4.2c0,0,1.3-0.4,4.3,1.6
	c1.3-0.4,2.6-0.5,4-0.5c1.3,0,2.7,0.2,4,0.5c3-2,4.3-1.6,4.3-1.6c0.9,2.2,0.3,3.8,0.2,4.2c1,1.1,1.6,2.5,1.6,4.2
	c0,6.1-3.7,7.4-7.2,7.8c0.6,0.5,1.1,1.5,1.1,2.9c0,2.1,0,3.8,0,4.3c0,0.4,0.3,0.9,1.1,0.8c6.3-2.1,10.8-8,10.8-15
	C271.8,247.7,264.7,240.6,256,240.6z"/>
</svg>
